# xmcd
#
# Track frame offsets: 
#        150
#        22737
#        42982
#        60067
#        91275
#        112116
#        124100
#        143290
#        162120
#        181692
#
# Disc length: 2645 seconds
#
# Revision: 0
# Processed by: cddbd v1.5.2PL0 Copyright (c) Steve Scherf et al.
# Submitted via: ExactAudioCopy v0.95b4
#
DISCID=6b0a530a
DTITLE=Magnus Berg - Cut Me Loose
DYEAR=2014
DGENRE=Blues
TTITLE0=Cut Me Loose
TTITLE1=One Way To Please You
TTITLE2=Drifting
TTITLE3=When You Leave Me
TTITLE4=Kansas City Blues
TTITLE5=San-Ho-Zay
TTITLE6=When It's Gone (feat. Kirsten Thien)
TTITLE7=Hoochie Coochie Man
TTITLE8=St. Pete Boogie
TTITLE9=One Too Many
EXTD=
EXTT0=
EXTT1=
EXTT2=
EXTT3=
EXTT4=
EXTT5=
EXTT6=
EXTT7=
EXTT8=
EXTT9=
PLAYORDER=
